<svg width="60" height="60" viewBox="0 0 60 60" fill="none" xmlns="http://www.w3.org/2000/svg">
<path d="M27.5 42.5003L32.5 47.5003C32.9925 47.9927 33.5771 48.3834 34.2205 48.6499C34.8639 48.9164 35.5536 49.0536 36.25 49.0536C36.9464 49.0536 37.6361 48.9164 38.2795 48.6499C38.9229 48.3834 39.5075 47.9927 40 47.5003C40.4925 47.0078 40.8831 46.4232 41.1496 45.7798C41.4161 45.1363 41.5533 44.4467 41.5533 43.7503C41.5533 43.0538 41.4161 42.3642 41.1496 41.7208C40.8831 41.0774 40.4925 40.4927 40 40.0003M35 35.0003L41.25 41.2503C42.2446 42.2448 43.5935 42.8036 45 42.8036C46.4065 42.8036 47.7554 42.2448 48.75 41.2503C49.7446 40.2557 50.3033 38.9068 50.3033 37.5003C50.3033 36.0938 49.7446 34.7448 48.75 33.7503L39.05 24.0503C37.6437 22.6458 35.7375 21.8569 33.75 21.8569C31.7625 21.8569 29.8563 22.6458 28.45 24.0503L26.25 26.2503C25.2554 27.2448 23.9065 27.8036 22.5 27.8036C21.0935 27.8036 19.7446 27.2448 18.75 26.2503C17.7554 25.2557 17.1967 23.9068 17.1967 22.5003C17.1967 21.0938 17.7554 19.7448 18.75 18.7503L25.775 11.7253C28.0556 9.45064 31.0297 8.00166 34.2266 7.60771C37.4235 7.21377 40.6604 7.89736 43.425 9.55028L44.6 10.2503C45.6645 10.8927 46.9301 11.1156 48.15 10.8753L52.5 10.0003M52.5 7.50028L55 35.0003H50M7.5 7.50028L5 35.0003L21.25 51.2503C22.2446 52.2448 23.5935 52.8036 25 52.8036C26.4065 52.8036 27.7554 52.2448 28.75 51.2503C29.7446 50.2557 30.3033 48.9068 30.3033 47.5003C30.3033 46.0938 29.7446 44.7448 28.75 43.7503M7.5 10.0003H27.5" stroke="white" stroke-width="4" stroke-linecap="round" stroke-linejoin="round"/>
</svg>
