<svg width="60" height="60" viewBox="0 0 60 60" fill="none" xmlns="http://www.w3.org/2000/svg">
<path d="M25.75 37.5H17.5C14.8478 37.5 12.3043 38.5536 10.4289 40.4289C8.55357 42.3043 7.5 44.8478 7.5 47.5V52.5M37.5 38.75V35C37.5 33.6739 38.0268 32.4021 38.9645 31.4645C39.9021 30.5268 41.1739 30 42.5 30C43.8261 30 45.0979 30.5268 46.0355 31.4645C46.9732 32.4021 47.5 33.6739 47.5 35V38.75M35 17.5C35 23.0228 30.5228 27.5 25 27.5C19.4772 27.5 15 23.0228 15 17.5C15 11.9772 19.4772 7.5 25 7.5C30.5228 7.5 35 11.9772 35 17.5ZM34.7475 40H50.2525C51.4938 40 52.5 41.0062 52.5 42.2475V50.2525C52.5 51.4938 51.4938 52.5 50.2525 52.5H34.7475C33.5062 52.5 32.5 51.4938 32.5 50.2525V42.2475C32.5 41.0062 33.5062 40 34.7475 40Z" stroke="white" stroke-width="4" stroke-linecap="round" stroke-linejoin="round"/>
</svg>
