<svg width="60" height="60" viewBox="0 0 60 60" fill="none" xmlns="http://www.w3.org/2000/svg">
<path d="M20 37.5H17.5C14.8478 37.5 12.3043 38.5536 10.4289 40.4289C8.55357 42.3043 7.5 44.8478 7.5 47.5V52.5M40.1275 31.54C40.2927 31.0333 40.6154 30.5927 41.0487 30.2824C41.4819 29.9721 42.003 29.8084 42.5358 29.8151C43.0687 29.8218 43.5854 29.9986 44.0107 30.3197C44.436 30.6408 44.7476 31.0894 44.9 31.6L46.7425 35.23C46.9218 35.5829 47.1823 35.8881 47.5027 36.1207C47.823 36.3532 48.1939 36.5063 48.585 36.5675L52.67 37.2075C53.196 37.2096 53.708 37.3775 54.133 37.6874C54.5581 37.9973 54.8746 38.4333 55.0374 38.9335C55.2003 39.4337 55.2012 39.9725 55.0401 40.4732C54.8789 40.974 54.564 41.4111 54.14 41.7225L51.21 44.6425C50.9295 44.9218 50.7193 45.2637 50.5967 45.6401C50.4742 46.0165 50.4427 46.4166 50.505 46.8075L51.1525 50.84C51.3306 51.3454 51.3416 51.8947 51.1839 52.4069C51.0262 52.919 50.708 53.3669 50.2764 53.6846C49.8448 54.0022 49.3225 54.1727 48.7866 54.171C48.2507 54.1693 47.7296 53.9954 47.3 53.675L43.6375 51.8C43.2847 51.6192 42.8939 51.5249 42.4975 51.5249C42.1011 51.5249 41.7103 51.6192 41.3575 51.8L37.695 53.675C37.2655 53.9927 36.7454 54.1645 36.2111 54.1651C35.6768 54.1657 35.1564 53.9951 34.7261 53.6784C34.2959 53.3616 33.9784 52.9153 33.8203 52.405C33.6622 51.8946 33.6717 51.347 33.8475 50.8425L34.4925 46.81C34.5548 46.4191 34.5233 46.019 34.4008 45.6426C34.2782 45.2662 34.068 44.9243 33.7875 44.645L30.8975 41.7625C30.4591 41.4588 30.1294 41.0229 29.9564 40.5185C29.7834 40.014 29.7763 39.4675 29.936 38.9587C30.0957 38.4499 30.414 38.0055 30.8442 37.6904C31.2745 37.3754 31.7942 37.2062 32.3275 37.2075L36.41 36.5675C36.8011 36.5063 37.172 36.3532 37.4923 36.1207C37.8127 35.8881 38.0732 35.5829 38.2525 35.23L40.1275 31.54ZM35 17.5C35 23.0228 30.5228 27.5 25 27.5C19.4772 27.5 15 23.0228 15 17.5C15 11.9772 19.4772 7.5 25 7.5C30.5228 7.5 35 11.9772 35 17.5Z" stroke="white" stroke-width="4" stroke-linecap="round" stroke-linejoin="round"/>
</svg>
