<svg width="72" height="57" viewBox="0 0 72 57" fill="none" xmlns="http://www.w3.org/2000/svg">
<path d="M2.11805 53.5548C5.11277 56.8033 10.1739 57.0091 13.4224 54.0143C16.6709 51.0196 16.8767 45.9585 13.8819 42.71C10.8872 39.4615 5.82609 39.2557 2.57758 42.2504C-0.670934 45.2452 -0.876671 50.3063 2.11805 53.5548ZM71.3389 2.08972e-07L55.7756 7.60157L70.1404 17.279L71.3389 2.08972e-07ZM28.9154 32.5857L28.3457 31.1981L28.1716 31.2696L28.0206 31.3818L28.9154 32.5857ZM57.2136 20.9671L57.7833 22.3547L58.2037 22.1821L58.4576 21.8052L57.2136 20.9671ZM8 48.1324L8.89484 49.3362L29.8103 33.7895L28.9154 32.5857L28.0206 31.3818L7.10516 46.9285L8 48.1324ZM28.9154 32.5857L29.4851 33.9733L57.7833 22.3547L57.2136 20.9671L56.6438 19.5795L28.3457 31.1981L28.9154 32.5857ZM57.2136 20.9671L58.4576 21.8052L65.0401 12.0343L63.7961 11.1963L62.552 10.3582L55.9695 20.129L57.2136 20.9671Z" fill="url(#paint0_linear_4513_1775)"/>
<defs>
<linearGradient id="paint0_linear_4513_1775" x1="12.5878" y1="57.7314" x2="83.7247" y2="-13.7992" gradientUnits="userSpaceOnUse">
<stop stop-color="#999999"/>
<stop offset="1" stop-color="white"/>
</linearGradient>
</defs>
</svg>
